Kai Po Che 2013 Hindi Movies Best DVDScr New Source Sample Included ~ rDX

Screen Shots :
 
http://myimghosting.serveftp.com/13/KaiPoChe.html
 
http://myimghost.cwahi.net/KaiPoChe.html


Format                                   : AVI
Format/Info                              : Audio Video Interleave
File size                                : 702 MiB
Duration                                 : 2h 3mn
Overall bit rate mode                    : Variable
Overall bit rate                         : 797 Kbps
Writing library                          : MPlayer

Video
ID                                       : 0
Format                                   : MPEG-4 Visual
Format profile                           : Advanced Simple@L5
Format settings, BVOP                    : 2
Format settings, QPel                    : No
Format settings, GMC                     : No warppoints
Format settings, Matrix                  : Default (H.263)
Codec ID                                 : XVID
Codec ID/Hint                            : XviD
Duration                                 : 2h 3mn
Bit rate                                 : 698 Kbps
Width                                    : 608 pixels
Height                                   : 288 pixels
Display aspect ratio                     : 2.111
Frame rate                               : 29.970 fps
Color space                              : YUV
Chroma subsampling                       : 4:2:0
Bit depth                                : 8 bits
Scan type                                : Progressive
Compression mode                         : Lossy
Bits/(Pixel*Frame)                       : 0.133
Stream size                              : 615 MiB (88%)
Writing library                          : XviD 1.2.1 (UTC 2008-12-04)

Audio
ID                                       : 1
Format                                   : MPEG Audio
Format version                           : Version 1
Format profile                           : Layer 3
Mode                                     : Joint stereo
Mode extension                           : MS Stereo
Codec ID                                 : 55
Codec ID/Hint                            : MP3
Duration                                 : 2h 3mn
Bit rate mode                            : Variable
Bit rate                                 : 87.4 Kbps
Nominal bit rate                         : 96.0 Kbps
Channel(s)                               : 2 channels
Sampling rate                            : 32.0 KHz
Compression mode                         : Lossy
Stream size                              : 76.9 MiB (11%)
Alignment                                : Aligned on interleaves
Interleave, duration                     : 36 ms (1.08 video frame)
Interleave, preload duration             : 501 ms
Writing library                          : LAME3.99r
Encoding settings                        : -m j -V 4 -q 2 -lowpass 15.1 --abr 96